#!OML:ASF H:\Terrain\Patient Classification 1\Walking\steve\steve.ASF
:FULLY-SPECIFIED
:DEGREES
46
root 6.23322 15.0397 -38.0869 9.07435 -6.64891 -5.29061
lowerback -3.38695 5.92741 5.68196
upperback -2.371 7.7477 0.476373
thorax 0.118396 3.82878 -2.3464
lowerneck -7.45281 -1.18369 -1.36291
upperneck 14.1587 -1.62552 1.42942
head 5.51661 -0.759547 0.559291
rclavicle 3.27575e-014 -1.26725e-014
rhumerus -12.9118 2.19776 -83.1295
rradius 39.0788
rwrist -10.1594
rhand -18.579 -38.0131
rfingers 7.12502
rthumb 7.71149 -67.8525
lclavicle 3.27575e-014 -1.26725e-014
lhumerus -61.2641 9.41266 72.8159
lradius 17.8135
lwrist 2.56472
lhand -18.2991 -21.2127
lfingers 7.12502
lthumb 7.98171 8.61656
rfemur 9.811 2.93576 26.2788
rtibia 19.089
rfoot -1.5068 20.2219
rtoes 2.02473
lfemur -40.989 2.17347 -12.23
ltibia 21.7603
lfoot -6.09828 6.74527
ltoes -3.43692
47
root 6.24404 15.0911 -37.8883 9.26379 -6.48241 -4.96896
lowerback -3.75775 5.85568 5.1594
upperback -2.38105 7.64371 0.300908
thorax 0.263643 3.78415 -2.20947
lowerneck -8.77817 -1.12625 -1.9465
upperneck 15.5838 -1.60198 2.30103
head 6.20367 -0.704504 0.925553
rclavicle 8.04224e-015 1.07716e-014
rhumerus -13.7676 2.10481 -83.407
rradius 38.8053
rwrist -10.122
rhand -19.4962 -39.4348
rfingers 7.12502
rthumb 6.82621 -69.3048
lclavicle 8.04224e-015 1.07716e-014
lhumerus -60.8615 9.9581 72.0276
lradius 17.458
lwrist 2.0993
lhand -19.5533 -19.8286
lfingers 7.12502
lthumb 6.77106 10.0432
rfemur 9.87856 3.61693 25.9351
rtibia 19.3088
rfoot 0.366267 18.878
rtoes 7.53223
lfemur -41.4466 2.0784 -12.6705
ltibia 23.3024
lfoot -4.98909 6.57887
ltoes -5.83802
48
root 6.25476 15.118 -37.6925 9.30739 -6.35963 -4.55925
lowerback -3.98057 5.84258 4.51822
upperback -2.38868 7.63544 0.0894114
thorax 0.326859 3.78591 -2.05546
lowerneck -9.5888 -1.08047 -2.24199
upperneck 16.4304 -1.60887 2.97227
head 6.62178 -0.662188 1.1872
rclavicle 1.13534e-013 4.02539e-015
rhumerus -14.8281 1.77484 -83.5594
rradius 38.4889
rwrist -10.2344
rhand -19.8859 -37.9578
rfingers 7.12502
rthumb 6.44994 -67.8395
lclavicle 1.13534e-013 4.02539e-015
lhumerus -60.4667 10.1938 71.2721
lradius 17.1484
lwrist 1.6968
lhand -22.363 -16.3077
lfingers 7.12502
lthumb 4.05822 13.6334
rfemur 10.078 4.05014 25.4942
rtibia 19.6177
rfoot 2.62159 17.4955
rtoes 12.2868
lfemur -41.752 1.99541 -13.2247
ltibia 24.9673
lfoot -4.29613 6.32791
ltoes -6.70765
49
root 6.26913 15.1057 -37.4964 9.23427 -6.12079 -4.28262
lowerback -3.96511 5.87725 4.06935
upperback -2.42811 7.6999 -0.108972
thorax 0.252154 3.81943 -2.01523
lowerneck -9.61512 -1.21282 -2.4553
upperneck 16.3001 -1.84181 3.49442
head 6.59769 -0.744887 1.3696
rclavicle -2.91965e-015 6.95746e-016
rhumerus -16.114 1.33245 -83.5774
rradius 38.4194
rwrist -10.2535
rhand -18.9263 -35.0268
rfingers 7.12502
rthumb 7.37627 -64.8782
lclavicle -2.91965e-015 6.95746e-016
lhumerus -60.0719 10.5926 70.0979
lradius 16.7915
lwrist 0.541531
lhand -29.2648 -6.9336
lfingers 7.12502
lthumb -2.60745 23.0302
rfemur 10.2772 4.40294 25.2879
rtibia 20.3725
rfoot 5.29481 15.7865
rtoes 19.9882
lfemur -41.9065 2.02594 -13.806
ltibia 26.5243
lfoot -3.84796 5.91153
ltoes -8.39076
50
root 6.28481 15.0979 -37.2988 9.15386 -5.7471 -4.19851
lowerback -4.03774 5.79974 3.89678
upperback -2.38111 7.59843 -0.18621
thorax 0.32305 3.77172 -1.99554
lowerneck -9.59199 -1.38621 -2.82482
upperneck 16.0265 -2.0631 3.79412
head 6.52008 -0.851494 1.50703
rclavicle -5.54174e-014 1.49089e-015
rhumerus -17.2747 1.21425 -83.6422
rradius 38.4215
rwrist -10.1039
rhand -18.1392 -34.4361
rfingers 7.12502
rthumb 8.13598 -64.2595
lclavicle -5.54174e-014 1.49089e-015
lhumerus -59.7611 11.4217 68.8795
lradius 16.6144
lwrist -0.773246
lhand -32.6101 -1.01355
lfingers 7.12502
lthumb -5.83778 28.886
rfemur 10.9806 4.58122 25.3781
rtibia 20.14
rfoot 6.79831 14.006
rtoes 22.3437
lfemur -42.4148 2.05374 -14.2109
ltibia 28.811
lfoot -4.09232 5.14051
ltoes -10.2148
51
root 6.29849 15.1285 -37.0978 9.1838 -5.57148 -4.12054
lowerback -4.28864 5.71908 3.76927
upperback -2.35043 7.48396 -0.297838
thorax 0.485548 3.71809 -2.01763
lowerneck -9.85313 -1.36441 -3.15541
upperneck 16.2435 -2.05468 4.23331
head 6.64211 -0.827368 1.70376
rclavicle -8.91611e-014 -1.11319e-014
rhumerus -18.3692 1.03243 -83.8851
rradius 38.2802
rwrist -9.62321
rhand -17.545 -34.818
rfingers 7.12502
rthumb 8.70943 -64.6183
lclavicle -8.91611e-014 -1.11319e-014
lhumerus -59.5268 10.7736 69.7445
lradius 17.4719
lwrist 0.89458
lhand -21.3352 -9.70489
lfingers 7.12502
lthumb 5.05069 20.2149
rfemur 11.4393 4.43687 25.3964
rtibia 19.8803
rfoot 6.59375 13.6228
rtoes 10.919
lfemur -42.8643 2.1809 -14.5663
ltibia 30.9632
lfoot -4.64277 4.27345
ltoes -12.4874
52
root 6.31859 15.0054 -36.9253 9.25924 -5.42677 -4.00823
lowerback -4.4769 5.72543 3.60515
upperback -2.38928 7.49272 -0.491128
thorax 0.55572 3.72372 -2.1064
lowerneck -10.166 -1.30012 -3.13454
upperneck 16.5896 -2.06699 4.76034
head 6.81318 -0.781614 1.87052
rclavicle -2.15557e-014 5.1684e-015
rhumerus -19.5788 0.476602 -84.1244
rradius 38.0051
rwrist -9.09732
rhand -15.3028 -43.9513
rfingers 7.12502
rthumb 10.8727 -73.6498
lclavicle -2.15557e-014 5.1684e-015
lhumerus -59.4742 9.46511 70.9779
lradius 18.9876
lwrist 3.15743
lhand -22.3326 -8.68782
lfingers 7.12502
lthumb 4.08764 21.2527
rfemur 12.6401 4.18259 25.2148
rtibia 20.343
rfoot 14.8098 3.85297
rtoes 45.2572
lfemur -43.7153 2.27505 -14.958
ltibia 32.8032
lfoot -4.76594 3.51361
ltoes -12.2857
